<svg width="192" height="36" viewBox="0 0 192 36" xmlns="http://www.w3.org/2000/svg"><g fill="none" fill-rule="evenodd"><path d="M5.184 3.004c0 1.475-1.083 2.543-2.501 2.543-1.42 0-2.504-1.068-2.504-2.543 0-1.512 1.084-2.58 2.504-2.58 1.418 0 2.501 1.068 2.501 2.58" fill="#3BB985"/><path fill="#FFF" d="M.553 28.218H4.81V8.608H.553z"/><path d="M16.912 24.532c.597 0 1.233-.22 1.978-.626l.599 3.465c-1.27.7-2.54 1.03-3.735 1.03-2.763 0-4.93-1.952-4.93-5.712V.866h4.258v21.38c0 1.585.71 2.286 1.83 2.286m8.216-6.083c0 3.797 2.503 6.377 6.089 6.377 3.547 0 6.05-2.58 6.05-6.377 0-3.76-2.503-6.34-6.05-6.34-3.586 0-6.089 2.58-6.089 6.34m16.433-.036c0 5.898-4.22 9.953-10.344 9.953-6.163 0-10.382-4.055-10.382-9.953 0-5.935 4.22-9.954 10.382-9.954 6.124 0 10.344 4.019 10.344 9.954" fill="#3BB985"/><path d="M100.023 26.965c-1.569.92-3.25 1.437-4.78 1.437-3.139 0-5.678-2.138-5.678-6.414V3.963h4.258v5.38h5.863v3.172h-5.863v8.737c0 2.321.783 3.316 2.203 3.316.785 0 1.755-.294 2.913-.847l1.084 3.244zm6.162-8.516c0 3.797 2.502 6.377 6.087 6.377 3.549 0 6.051-2.58 6.051-6.377 0-3.76-2.502-6.34-6.05-6.34-3.586 0-6.088 2.58-6.088 6.34m16.433-.036c0 5.898-4.221 9.953-10.346 9.953-6.163 0-10.382-4.055-10.382-9.953 0-5.935 4.22-9.954 10.382-9.954 6.125 0 10.346 4.019 10.346 9.954m68.427-9.806v17.51c0 5.75-3.883 9.437-9.934 9.4-2.987-.073-6.348-1.216-8.44-2.949l1.158-3.096c1.83 1.437 4.482 2.432 6.834 2.506 3.773 0 6.125-2.248 6.125-5.935v-3.06c-1.383 2.397-3.809 3.576-7.357 3.613-4.556 0-7.358-2.912-7.358-7.593V8.607h4.295v9.18c0 2.985 1.794 4.792 4.78 4.792 3.548-.038 5.64-2.507 5.64-6.452v-7.52h4.257z" fill="#FFF"/><path d="M53.647 24.826c-3.585 0-6.088-2.58-6.088-6.378 0-3.76 2.503-6.339 6.088-6.339 3.548 0 6.05 2.58 6.05 6.34 0 3.798-2.502 6.377-6.05 6.377m0-16.367c-6.162 0-10.382 4.019-10.382 9.953 0 5.9 4.41 9.918 9.804 9.954 2.883.019 5.126-1.01 6.628-2.621v2.473h4.295v-9.806c0-5.934-4.22-9.953-10.345-9.953" fill="#3BB985"/><path d="M159.034 24.826c-3.585 0-6.089-2.58-6.089-6.378 0-3.76 2.504-6.339 6.089-6.339 3.547 0 6.049 2.58 6.049 6.34 0 3.798-2.502 6.377-6.05 6.377m0-16.367c-6.162 0-10.381 4.019-10.381 9.953 0 5.9 4.409 9.918 9.804 9.954 2.882.019 5.126-1.01 6.627-2.621v2.473h4.295v-9.806c0-5.934-4.22-9.953-10.344-9.953m-23.381 16.257c-3.585 0-6.088-2.58-6.088-6.339 0-3.798 2.503-6.378 6.088-6.378 3.548 0 6.05 2.58 6.05 6.378 0 3.76-2.502 6.34-6.05 6.34zm6.05-23.85V11.08c-1.502-1.61-3.745-2.64-6.627-2.62-5.395.036-9.804 4.054-9.804 9.953 0 5.935 4.22 9.953 10.381 9.953 6.125 0 10.345-4.018 10.345-9.953V.865h-4.295z" fill="#FFF"/><path d="M70.961 28.218V17.733c0-2.956 2.337-5.36 5.21-5.36 2.872 0 5.209 2.404 5.209 5.36v10.485h4.295V17.733c0-5.25-4.256-9.504-9.505-9.504a9.504 9.504 0 0 0-9.504 9.504v10.485h4.295z" fill="#3BB985"/></g></svg>