<svg width="231" height="30" viewBox="0 0 231 30" xmlns="http://www.w3.org/2000/svg"><title>Group 7</title><g fill="#FFF" fill-rule="evenodd"><path d="M4.466 13.918L.728 17.782V19H7.91v-1.484H2.898L5.586 14.8c1.078-1.12 1.848-2.226 1.848-3.206 0-1.512-1.302-2.478-3.22-2.478-1.288 0-2.562.532-3.654 1.4l.672 1.274c.84-.756 1.876-1.218 2.758-1.218 1.078 0 1.722.462 1.722 1.26 0 .56-.504 1.344-1.246 2.086zm7.541-1.12V10.67h4.69V9.186h-6.216v5.194c.7-.084 2.072-.14 2.702-.14 1.344 0 2.17.616 2.17 1.624 0 1.092-.826 1.764-2.198 1.764-.924 0-1.946-.378-2.772-1.036l-.672 1.344c1.008.672 2.422 1.12 3.626 1.12 2.296 0 3.78-1.302 3.78-3.304 0-1.708-1.428-2.968-3.654-2.968-.378 0-1.022 0-1.456.014zm13.632-1.694c-.602-.392-1.428-.616-2.17-.616-1.904 0-2.8 1.428-2.73 3.556.518-.924 1.442-1.4 2.674-1.4 1.96 0 3.164 1.218 3.164 3.136 0 2.03-1.372 3.29-3.458 3.29-2.478 0-3.99-1.764-3.99-4.774 0-3.136 1.638-5.18 4.228-5.18.966 0 2.128.294 2.926.742l-.644 1.246zm-2.534 2.842c-1.33 0-2.114.868-2.1 1.876-.014.854.616 1.834 2.03 1.834 1.19 0 2.002-.7 2.002-1.89 0-1.12-.742-1.82-1.932-1.82zm5.413.238v1.106h3.444v-1.106h-3.444zM38.943 9.2c2.03 0 3.29.924 3.29 2.45 0 1.106-.658 1.932-1.722 2.184 1.316.224 2.1 1.162 2.1 2.478 0 1.68-1.358 2.688-3.57 2.688h-4.354V9.2h4.256zm-.084 4.06c1.05 0 1.68-.49 1.68-1.316 0-.826-.63-1.274-1.68-1.274h-2.52v2.59h2.52zm0 4.27c1.288 0 2.058-.504 2.058-1.428 0-.868-.77-1.386-2.058-1.386h-2.52v2.814h2.52zm6.296-8.33V19h1.652V9.2h-1.652zm3.649 0v1.484h3.094V19h1.652v-8.316h3.108V9.2h-7.854zm20.01 2.394l.687-1.456c-.91-.602-2.156-1.008-3.43-1.008-2.128 0-3.57 1.05-3.57 2.73 0 3.486 5.292 2.268 5.292 4.452 0 .756-.686 1.19-1.834 1.19-1.05 0-2.31-.504-3.318-1.428l-.714 1.428a6.028 6.028 0 0 0 4.004 1.554c2.156 0 3.696-1.078 3.696-2.828.014-3.528-5.278-2.38-5.278-4.522 0-.658.63-1.022 1.596-1.022.742 0 1.806.266 2.87.91zm9.292 0l.686-1.456c-.91-.602-2.156-1.008-3.43-1.008-2.128 0-3.57 1.05-3.57 2.73 0 3.486 5.292 2.268 5.292 4.452 0 .756-.686 1.19-1.834 1.19-1.05 0-2.31-.504-3.318-1.428l-.714 1.428a6.028 6.028 0 0 0 4.004 1.554c2.156 0 3.696-1.078 3.696-2.828.014-3.528-5.278-2.38-5.278-4.522 0-.658.63-1.022 1.596-1.022.742 0 1.806.266 2.87.91zM81.433 9.2V19h5.894v-1.498h-4.242V9.2h-1.652zM140.288 9.2V19h7.168v-1.484h-5.516v-2.702h4.788V13.33h-4.788v-2.646h5.348V9.2h-7zm9.184 0V19h1.652v-7.028L156.346 19h1.624V9.2h-1.624v7.042l-5.25-7.042h-1.624zm18.186 2.674l.966-1.204c-.952-.938-2.338-1.512-3.724-1.512-2.898 0-5.152 2.142-5.152 4.928 0 2.814 2.226 4.984 5.096 4.984 1.386 0 2.8-.63 3.794-1.61l-.98-1.092c-.742.714-1.75 1.162-2.73 1.162-1.96 0-3.5-1.526-3.5-3.458 0-1.932 1.54-3.444 3.5-3.444.994 0 2.016.476 2.73 1.246zM178.41 19h-1.876l-1.792-2.968c-.14.014-.294.014-.448.014h-2.324V19h-1.652V9.2h3.976c2.506 0 3.948 1.218 3.948 3.346 0 1.568-.728 2.674-2.03 3.178L178.41 19zm-6.44-4.438h2.324c1.512 0 2.38-.644 2.38-1.974 0-1.288-.868-1.904-2.38-1.904h-2.324v3.878zM187.944 9.2h-1.68l-2.744 4.774-2.8-4.774h-1.666l3.654 6.594V19h1.638v-3.262l3.598-6.538zm5.208 0c2.464 0 3.878 1.218 3.878 3.346 0 2.212-1.414 3.5-3.878 3.5h-2.254V19h-1.652V9.2h3.906zm-.07 5.362c1.512 0 2.366-.644 2.366-1.974 0-1.288-.854-1.904-2.366-1.904h-2.184v3.878h2.184zm4.424-5.362v1.484h3.094V19h1.652v-8.316h3.108V9.2h-7.854zm9.268 0V19h1.652V9.2h-1.652zm8.61-.042c2.926 0 5.194 2.142 5.194 4.942 0 2.8-2.268 4.97-5.194 4.97s-5.194-2.17-5.194-4.97c0-2.814 2.268-4.942 5.194-4.942zm.014 1.484c-1.932 0-3.528 1.512-3.528 3.458 0 1.946 1.61 3.486 3.528 3.486a3.477 3.477 0 0 0 3.486-3.486c0-1.946-1.568-3.458-3.486-3.458zm6.944-1.442V19h1.652v-7.028L229.216 19h1.624V9.2h-1.624v7.042l-5.25-7.042h-1.624z"/><path d="M116.456 13.092V9.347c0-1.344-1.1-2.433-2.456-2.433-1.357 0-2.456 1.089-2.456 2.433v1.762h-1.775V9.347c0-2.315 1.894-4.191 4.23-4.191 2.338 0 4.232 1.876 4.232 4.19v3.746h1.616v1.758h-11.694v-1.758h8.303zM129 8.623c0 9.296-5.688 17.627-14.336 21.11l-.661.267-.662-.266C104.69 26.253 99 17.922 99 8.623c0-2.08.281-4.127.837-6.097l.444-1.579 1.618.345c1.339.286 2.71.43 4.1.43 2.542 0 5.02-.48 7.337-1.417l.667-.305.663.305A19.527 19.527 0 0 0 122 1.722c1.391 0 2.765-.144 4.103-.43l1.62-.345.443 1.58c.554 1.973.834 4.019.834 6.096zm-23-5.178c-1.513 0-3.008-.157-4.468-.468a20.12 20.12 0 0 0-.793 5.646c0 8.596 5.26 16.297 13.257 19.515 8.007-3.22 13.265-10.921 13.265-19.515 0-1.921-.26-3.812-.77-5.634-1.48.3-2.977.456-4.49.456-2.764 0-5.483-.524-8.008-1.545A21.273 21.273 0 0 1 106 3.445zm2.153 14.92v-1.757h11.694v1.758h-11.694zm0 3.517v-1.758h11.694v1.758h-11.694z" fill-rule="nonzero"/></g></svg>