<svg width="44" height="44" viewBox="0 0 44 44" xmlns="http://www.w3.org/2000/svg"><g transform="translate(1 1)" fill="none" fill-rule="evenodd"><circle stroke="#3BB985" stroke-width="2" fill="#F4F4F5" cx="21" cy="21" r="21"/><path d="M21.296 20.504l-.656-.048 3.6-3.472V15.8h-7.36l.016 1.68h4.992l-3.28 3.152v1.088h1.632c1.712 0 2.72.624 2.72 1.84 0 1.168-.992 1.936-2.688 1.936a4.892 4.892 0 0 1-3.152-1.168l-.784 1.536c1.024.736 2.576 1.216 4.064 1.216 2.704 0 4.4-1.456 4.4-3.552 0-1.776-1.408-2.848-3.504-3.024z" fill="#3BB985"/></g></svg>
