<?xml version="1.0" encoding="utf-8"?>
<!-- Generator: Adobe Illustrator 23.0.3, SVG Export Plug-In . SVG Version: 6.00 Build 0)  -->
<svg version="1.1" id="Layer_1" xmlns="http://www.w3.org/2000/svg" xmlns:xlink="http://www.w3.org/1999/xlink" x="0px" y="0px"
	 viewBox="0 0 25 26.33" style="enable-background:new 0 0 25 26.33;" xml:space="preserve">
<style type="text/css">
	.st0{fill:none;stroke:#B71E4C;stroke-width:5;stroke-miterlimit:10;}
	.st1{fill:#F9F9F9;}
	.st2{fill:#A5AAAD;}
	.st3{fill:none;stroke:#A5AAAD;stroke-width:1.5;stroke-miterlimit:10;}
	.st4{fill:#EFEFEF;}
	.st5{fill:#FFFFFF;}
	.st6{opacity:0.9;fill:#FFFFFF;}
	.st7{fill:#B71E4C;}
	.st8{fill:none;stroke:#E3E3E3;stroke-miterlimit:10;}
	.st9{opacity:0.4;fill:#F2F2F2;}
	.st10{fill:#F2F2F2;}
	.st11{opacity:0.05;fill:#B71E4C;}
	.st12{fill:none;stroke:#000000;stroke-miterlimit:10;}
	.st13{opacity:0.1;}
	.st14{fill:#5A5A5A;}
	.st15{opacity:0.05;}
	.st16{opacity:0;}
	.st17{opacity:0.15;fill:#606060;}
	.st18{fill:none;stroke:#FFFFFF;stroke-miterlimit:10;}
	.st19{fill:#B2B3B3;}
	.st20{fill:url(#SVGID_13_);}
	.st21{fill:url(#SVGID_14_);}
	.st22{fill:url(#SVGID_15_);}
	.st23{opacity:0.4;}
	.st24{fill:url(#SVGID_16_);}
	.st25{fill:url(#SVGID_17_);}
	.st26{fill:url(#SVGID_18_);}
	.st27{fill:url(#SVGID_31_);}
	.st28{fill:url(#SVGID_32_);}
	.st29{fill:url(#SVGID_33_);}
	.st30{fill:url(#SVGID_52_);}
	.st31{fill:url(#SVGID_53_);}
	.st32{fill:url(#SVGID_54_);}
	.st33{opacity:0.1;fill:#B71E4C;}
	.st34{fill:#F7FAFD;}
	.st35{fill:#F0EFEF;}
	.st36{fill:#7F7F7F;}
	.st37{fill:#CCCCCC;}
</style>
<g>
	<g>
		<path class="st5" d="M4.66,5.1c0.39-0.01,0.77,0.22,1.08,0.54l2.98,2.98C9.05,8.95,9.26,9.24,9.26,9.7c0,0.48-0.25,0.79-0.54,1.08
			l-1.08,1.08c-0.48,0.5-0.51,0.87-0.27,1.35l5.69,5.69c0.49,0.24,0.86,0.21,1.35-0.27l1.08-1.08c0.3-0.3,0.6-0.54,1.08-0.54
			c0.46,0,0.75,0.21,1.08,0.54l2.98,2.98c0.32,0.32,0.55,0.69,0.54,1.08c-0.01,0.53-0.18,0.76-0.54,1.08l-2.17,1.9
			c-0.45,0.4-1.16,0.54-1.9,0.54c-2.46,0-6.45-1.85-10.02-5.42C2.99,16.15,1.14,12.16,1.14,9.7c0-0.74,0.15-1.44,0.54-1.9l1.9-2.17
			C3.89,5.27,4.12,5.11,4.66,5.1L4.66,5.1z"/>
	</g>
	<g>
		<g>
			<path class="st5" d="M17.37,13.62c-0.83-5-5.73-5.9-5.94-5.94l0.23-1.38c0.06,0.01,6.08,1.08,7.08,7.08L17.37,13.62z"/>
		</g>
		<g>
			<g>
				<path class="st5" d="M22.49,13.16C20.99,4.22,12.27,2.64,11.9,2.57l0.23-1.38c0.1,0.02,10.07,1.79,11.73,11.73L22.49,13.16z"/>
			</g>
		</g>
	</g>
</g>
</svg>
