<svg xmlns="http://www.w3.org/2000/svg" width="12" height="12" viewBox="0 0 12 12">
    <path fill="#ffffff" fill-rule="nonzero" d="M9.103 11.377c-.88 0-2.48-.552-5.11-3.182-1.563-1.563-2.567-2.92-2.986-4.032-.453-1.203-.096-1.807.156-2.06l.897-.896c.199-.199.463-.308.743-.308.327 0 .63.148.83.405l1.092 1.404c.299.383.297.916-.004 1.297l-.247.312a.631.631 0 0 0 .05.838l2.51 2.51c.22.221.592.243.837.05l.312-.247a1.08 1.08 0 0 1 1.298-.005l1.403 1.093a1.051 1.051 0 0 1 .098 1.573l-.897.896c-.16.16-.461.352-.982.352z"/>
</svg>
