<?xml version="1.0" encoding="UTF-8"?>
<svg width="456px" height="86px" viewBox="0 0 456 86" version="1.1" xmlns="http://www.w3.org/2000/svg" xmlns:xlink="http://www.w3.org/1999/xlink">
    <!-- Generator: Sketch 62 (91390) - https://sketch.com -->
    <title>Logo</title>
    <desc>Created with Sketch.</desc>
    <defs>
        <linearGradient x1="49.9549083%" y1="100%" x2="49.9549083%" y2="9.87825296e-15%" id="linearGradient-1">
            <stop stop-color="#656E73" offset="31%"></stop>
            <stop stop-color="#E6E7E8" offset="100%"></stop>
        </linearGradient>
        <linearGradient x1="49.8880671%" y1="3.21188878%" x2="50.3854608%" y2="103.195909%" id="linearGradient-2">
            <stop stop-color="#656E73" offset="31%"></stop>
            <stop stop-color="#E6E7E8" offset="95%"></stop>
        </linearGradient>
        <radialGradient cx="51.9662741%" cy="48.2410505%" fx="51.9662741%" fy="48.2410505%" r="69.4443733%" gradientTransform="translate(0.519663,0.482411),scale(1.000000,0.827688),rotate(-5.710593),translate(-0.519663,-0.482411)" id="radialGradient-3">
            <stop stop-color="#008ECC" offset="30%"></stop>
            <stop stop-color="#075F9E" offset="56%"></stop>
            <stop stop-color="#0F2F6E" offset="85%"></stop>
            <stop stop-color="#121D5C" offset="100%"></stop>
        </radialGradient>
        <linearGradient x1="43.8114848%" y1="24.9051524%" x2="75.2916953%" y2="67.5744509%" id="linearGradient-4">
            <stop stop-color="#BDBDBD" offset="0%"></stop>
            <stop stop-color="#A3A5A7" offset="22%"></stop>
            <stop stop-color="#81878B" offset="55%"></stop>
            <stop stop-color="#6C7579" offset="82%"></stop>
            <stop stop-color="#656E73" offset="100%"></stop>
        </linearGradient>
    </defs>
    <g id="Logo" stroke="none" stroke-width="1" fill="none" fill-rule="evenodd">
        <g id="Group" transform="translate(315.000000, 2.000000)">
            <path d="M118.763902,30.6750028 C116.837632,24.3194267 108.521265,16.8127853 96.4803036,10.5278267 C85.8182951,4.97022857 73.2726651,3 65.681315,3 L65.3188067,3 C57.7274566,3 45.1889346,4.97022857 34.526926,10.5278267 C22.4788564,16.819847 14.1553817,24.340612 12.2362202,30.6750028 C12.0665191,31.6068504 11.9879651,32.5528242 12.001656,33.4997032 L12.001656,33.4997032 C11.987338,34.4466033 12.065897,35.3926374 12.2362202,36.3244037 C14.1553817,42.6799797 22.4788564,50.1866212 34.51271,56.4715797 C45.2315826,62.0644866 57.8696167,64.0276535 65.4467508,63.9997064 L65.674207,63.9997064 C73.265557,63.9997064 85.8254031,62.0362396 96.4803036,56.4715797 C108.521265,50.1442507 116.837632,42.616424 118.763902,36.2608479 C118.929836,35.3285125 119.008361,34.3828945 118.999296,33.4361475 L118.999296,33.4361475 C119.004604,32.5106079 118.926093,31.586428 118.763902,30.6750028 L118.763902,30.6750028 Z M93.7934775,17.5189604 L92.4927125,19.941141 L95.1724306,17.5189604 L98.186225,17.5189604 L95.2079706,20.1318083 L95.5491549,22.864706 L92.3505523,22.864706 L92.1941762,20.4990194 L90.9289512,22.8435207 L87.6095125,22.8435207 L90.4527148,17.4977751 L93.7934775,17.5189604 Z M86.8063079,17.5189604 C87.3003778,17.4657267 87.7962415,17.6021492 88.192369,17.9002949 C88.3892271,18.1158866 88.4915408,18.4005008 88.4766892,18.6912111 C88.4829229,19.1940254 88.2797047,19.6770419 87.9151568,20.025882 C87.7367488,20.2089094 87.527455,20.3594807 87.2967603,20.4707723 C87.0326644,20.5685913 86.7585441,20.6372675 86.4793396,20.6755631 C86.991116,20.8379834 87.2541123,21.0851447 87.2541123,21.3817382 C87.238647,21.60934 87.1679197,21.8298332 87.0479801,22.0243576 L86.6072837,22.8435207 L83.3589251,22.8435207 L83.9133496,21.8054433 C83.9816102,21.6944315 84.0207156,21.5681659 84.0270777,21.4382323 C84.0270777,21.2122562 83.8778096,21.0992682 83.5863813,21.0992682 L83.1172529,21.0992682 L82.1932122,22.8435207 L78.9661776,22.8435207 L81.8093799,17.4977751 L86.8063079,17.5189604 Z M79.1794178,17.7802452 C79.6561069,17.9576908 79.9709996,18.4114548 79.9684223,18.9171871 C79.9429184,19.3850603 79.8117307,19.8412295 79.5845741,20.2518581 C79.2974521,20.8828468 78.9111663,21.4644641 78.4401852,21.9749253 C77.7293846,22.6811005 76.5423477,23.005941 74.8222103,23.005941 C73.9128357,23.0583666 73.0024768,22.9212581 72.1496002,22.6034212 C71.672911,22.4259755 71.3580184,21.9722115 71.3605956,21.4664793 C71.3860995,20.998606 71.5172872,20.5424369 71.7444438,20.1318083 C72.0353237,19.4999759 72.4291891,18.9201803 72.9101568,18.4158028 C73.6209573,17.7096276 74.8079943,17.3847871 76.5210237,17.3847871 C77.4249233,17.3373088 78.3291574,17.4718211 79.1794178,17.7802452 L79.1794178,17.7802452 Z M65.1482145,17.5189604 L68.4178972,17.5189604 L68.3752491,19.1784719 L70.0669545,17.5189604 L73.0736409,17.5189604 L68.7732974,21.2051945 L67.8421487,22.8435207 L64.437414,22.8435207 L65.3827787,21.0922065 L65.1482145,17.5189604 Z M54.486206,17.5189604 L53.8820255,20.0188203 L55.737215,17.5260221 L58.7936575,17.5260221 L58.0828569,20.0329438 L60.0233424,17.5260221 L62.9589488,17.5260221 L58.1397209,22.8435207 L54.9055783,22.8435207 L55.4031387,20.7673659 L53.6403533,22.8435207 L50.4062107,22.8435207 L51.4226555,17.4977751 L54.486206,17.5189604 Z M50.797151,17.5189604 L50.0863505,18.8748166 L46.8166679,18.8748166 L46.4470516,19.5244977 L49.496386,19.5244977 L48.7855854,20.8379834 L45.778899,20.8379834 L45.4021747,21.5441585 L48.7926934,21.5441585 L48.0818929,22.9000147 L41.5709597,22.9000147 L44.4141619,17.5542691 L50.797151,17.5189604 Z M35.8703391,17.5189604 L38.8628095,17.5189604 L39.3674779,19.8140295 L40.5616228,17.5189604 L43.1773689,17.5189604 L40.3341667,22.864706 L37.4909644,22.864706 L36.9436479,20.3860313 L35.6713149,22.8435207 L33.0484608,22.8435207 L35.8703391,17.5189604 Z M33.1692969,42.2915834 C27.2412202,42.2915834 24.7676342,40.8792332 24.7676342,38.2381382 C24.7850859,36.897115 25.1816325,35.5879728 25.9120231,34.4601014 L26.8431719,32.7299723 L34.526926,32.7299723 L32.6148725,36.3597124 C32.3816712,36.765573 32.2364067,37.2153678 32.1883921,37.6802599 C32.1742224,37.9216632 32.2681337,38.1569523 32.4449727,38.3231071 C32.6218116,38.4892618 32.8635078,38.5693034 33.1053249,38.5417935 C34.1004457,38.5417935 34.5980061,37.8850507 35.2377266,36.656306 L40.2133306,27.3912885 L49.1907418,27.3912885 L45.1107465,35.1592147 C43.9450336,37.3271723 43.212909,38.555917 42.047196,39.7140442 C40.3128426,41.4159263 37.4412083,42.2915834 33.1692969,42.2915834 Z M50.6763149,27.3912885 L68.0767129,27.3912885 L66.1006873,31.0704608 L57.2014642,31.0704608 L56.2063434,32.8358986 L65.1979706,32.8358986 L63.3001331,36.3667742 L54.3298299,36.3667742 L53.3133851,38.2381382 L62.5182524,38.2381382 L62.4756044,38.3158175 C60.6622824,38.6205346 58.9072297,39.2017452 57.2725442,40.0388848 C56.2284626,40.5781365 55.2321601,41.2041558 54.2942898,41.9102488 L42.9214807,41.9102488 L50.6763149,27.3912885 Z M69.1642378,48.5412332 C69.2154792,48.5969124 69.262969,48.6558883 69.3063979,48.717777 L69.9319024,48.717777 L70.1522506,48.5412332 C70.2286349,48.2040095 70.2808909,47.861836 70.3086267,47.5172793 C70.9625632,47.5172793 71.6164997,47.5031558 72.2704363,47.4749088 C74.402838,47.4184147 76.5352397,47.3407355 78.6178853,47.1924387 L78.9732856,47.6161438 L78.9732856,47.6161438 C78.4970492,49.2332848 76.4712676,51.1470194 73.2868811,52.8135926 C70.8790151,54.011471 68.2315994,54.6581594 65.5391549,54.7061419 L65.4538588,54.7061419 C62.752869,54.6586166 60.0973913,54.0069118 57.6848086,52.7994691 C54.528854,51.1470194 52.5101804,49.226223 51.998404,47.6161438 L52.3609123,47.1924387 C54.493314,47.3407355 56.5830677,47.4184147 58.7012534,47.4749088 C59.4120539,47.4749088 60.1228545,47.4749088 60.8905191,47.524341 C60.9182558,47.8665662 60.9705136,48.2063915 61.0468953,48.5412332 L61.2672434,48.717777 L61.8927479,48.717777 C61.9361768,48.6558883 61.9836666,48.5969124 62.0349081,48.5412332 C61.8429411,47.450226 61.8429411,46.3344026 62.0349081,45.2433954 L61.8927479,45.0739134 L61.2672434,45.0739134 L61.0468953,45.2575189 C60.9705136,45.5923605 60.9182558,45.9321859 60.8905191,46.2744111 C60.1797186,46.2744111 59.468918,46.2744111 58.7012534,46.3167816 C56.5688517,46.3732756 54.43645,46.4580166 52.3609123,46.5992516 L51.969972,46.1402378 L51.969972,46.0131263 C52.4462084,44.403047 54.464882,42.4822507 57.6563765,40.8086157 C60.0689593,39.601173 62.7244369,38.9494682 65.4254268,38.9019429 L65.5107228,38.9019429 C68.2036388,38.9463197 70.8518483,39.593202 73.258449,40.7944922 C76.4357276,42.4469419 78.4615092,44.3748 78.9448536,45.9848793 C78.9482444,46.038967 78.9482444,46.0932118 78.9448536,46.1472995 L78.5610213,46.5992516 C76.4286196,46.4580166 74.2962179,46.3732756 72.2135722,46.3167816 C71.5596357,46.3167816 70.9056992,46.3167816 70.2517626,46.2744111 C70.2240259,45.9321859 70.1717681,45.5923605 70.0953865,45.2575189 L69.8750383,45.0739134 L69.2495338,45.0739134 L69.1073737,45.2433954 C69.3173544,46.3288393 69.3365932,47.4422065 69.1642378,48.5341714 L69.1642378,48.5412332 Z M76.2011634,41.535976 C75.4065249,40.9763821 74.5727789,40.4737261 73.7062534,40.031823 C72.1195374,39.2191033 70.4179785,38.6500523 68.6595694,38.3440645 L72.5547565,31.0987078 L67.5791525,31.0987078 L69.5765021,27.3983502 L88.2705571,27.3983502 L86.2803155,31.0987078 L81.7951639,31.0987078 L76.2011634,41.535976 Z M105.806007,32.2780203 L98.6127054,32.2780203 C98.814229,31.9503737 98.9223325,31.5744736 98.9254576,31.1905106 C98.9254576,30.6750028 98.3283851,30.2936682 97.2835083,30.2936682 C95.9827433,30.2936682 95.3145907,30.837423 95.3145907,31.4306101 C95.3145907,32.0237972 95.9116632,32.1367853 99.0178617,32.8429604 C102.12406,33.5491355 103.240017,34.2553106 103.240017,35.9360074 C103.188777,37.4320596 102.541988,38.8467509 101.441692,39.8694028 C99.9419024,41.3594323 97.7099886,42.2774599 92.2012842,42.2774599 C85.654811,42.2774599 83.7569735,41.2181972 83.7569735,38.9796221 C83.7575417,38.2424576 83.9354454,37.516104 84.2758579,36.8610968 L91.6113197,36.8610968 C91.410538,37.2323299 91.3055243,37.6472249 91.3056755,38.0686562 C91.3056755,38.6335963 91.8458839,38.9866839 92.9902729,38.9866839 C94.2483899,38.9866839 94.9805144,38.5347318 94.9805144,37.7579392 C94.9805144,36.9811465 94.3407939,36.8893438 91.0426793,36.0631189 C87.9578048,35.2863263 87.0764121,34.6931392 87.0764121,33.0477512 C87.179906,31.667243 87.807474,30.377363 88.8320895,29.4391963 C90.4456068,27.8361788 92.6775206,26.9817069 98.0724969,26.9817069 C104.05033,26.9817069 106.232487,27.9279816 106.232487,30.1948037 C106.25215,30.9101634 106.106242,31.6204592 105.806007,32.2709585 L105.806007,32.2780203 Z" id="Shape" fill="#115740" fill-rule="nonzero"></path>
            <path d="M67.722497,45 L67.1444994,45 L67,45.1890359 C67.0722394,46.3949131 67.0722394,47.6050869 67,48.8109641 L67.1444994,49 L67.722497,49 L67.9064054,48.8034026 C68.0311982,47.6130146 68.0311982,46.4096697 67.9064054,45.2192817 C67.8488675,45.1421237 67.7874599,45.0689048 67.722497,45 L67.722497,45 Z" id="Path" fill="#115740" fill-rule="nonzero"></path>
            <path d="M62.8555006,45 L62.2709348,45 L62.0935946,45.1977186 C61.9688018,46.3948959 61.9688018,47.6051041 62.0935946,48.8022814 L62.2709348,49 L62.8555006,49 L63,48.8098859 C62.9277606,47.5971311 62.9277606,46.3800552 63,45.1673004 L62.8555006,45 Z" id="Path" fill="#115740" fill-rule="nonzero"></path>
            <path d="M65.8201439,45 L65.1798561,45 C65.1236218,45.0686615 65.0635661,45.1338145 65,45.195122 C65,46.4033771 65,47.6041276 65,48.804878 L65.1798561,49 L65.8201439,49 L66,48.804878 C66,47.6041276 66,46.4033771 66,45.195122 C65.9364339,45.1338145 65.8763782,45.0686615 65.8201439,45 Z" id="Path" fill="#115740" fill-rule="nonzero"></path>
            <path d="M73.6019417,20.9997674 C73.8549683,21.0042929 74.1021798,20.9426563 74.3009709,20.8254805 C74.5146789,20.6711991 74.6890436,20.4891009 74.815534,20.2880956 L75.7864078,18.886538 C75.9124003,18.7328055 75.9857636,18.5582051 76,18.378201 C76,18.1240325 75.8058252,18.0005792 75.407767,18.0005792 C75.1571535,17.9932713 74.9117335,18.055323 74.7184466,18.1748662 C74.4971094,18.3274537 74.3159863,18.5097314 74.184466,18.712251 L73.2135922,20.1138087 C73.0915144,20.2714906 73.0185089,20.4477217 73,20.6294076 C73,20.8763141 73.2038835,20.9997674 73.6019417,20.9997674 Z" id="Path" fill="#115740" fill-rule="nonzero"></path>
            <path d="M84.7209302,19.2760463 L84.8883721,18.8921032 C84.9539175,18.7459263 84.9920361,18.5839688 85,18.4178205 C85,18.1355093 84.8604651,18 84.572093,18 L83.9302326,18 L83,19.9987628 L83.8093023,19.9987628 C84.2097098,20.0214523 84.5770626,19.7302239 84.7209302,19.2760463 Z" id="Path" fill="#115740" fill-rule="nonzero"></path>
            <text id="OFFICIAL-PARTNER" fill="#000000" font-family="ProximaNova-Regular, Proxima Nova" font-size="10" font-weight="normal">
                <tspan x="27.2480469" y="79">OFFICIAL PARTNER</tspan>
            </text>
        </g>
        <g id="SHW-2" transform="translate(0.000000, 6.000000)" fill-rule="nonzero">
            <polygon id="Path" fill="#555D60" points="76.51 55.39 76.51 61.58 84.75 61.58 84.75 55.39 86.31 55.39 86.31 69.05 84.75 69.05 84.75 63.05 76.51 63.05 76.51 69.05 75 69.05 75 55.39"></polygon>
            <path d="M104.24,62.22 C104.362531,65.1419607 102.695694,67.8447427 100.029713,69.0469958 C97.3637315,70.249249 94.2345437,69.7092864 92.1256523,67.6830966 C90.0167609,65.6569068 89.3521126,62.5518112 90.4468077,59.8398911 C91.5415028,57.127971 94.1754767,55.3543989 97.1,55.36 C98.9566218,55.3224961 100.752063,56.0242609 102.091154,57.3108393 C103.430246,58.5974178 104.203239,60.3633633 104.24,62.22 Z M91.52,62.22 C91.52,65.2907032 94.0092968,67.78 97.08,67.78 C100.150703,67.78 102.64,65.2907032 102.64,62.22 C102.64,59.1492968 100.150703,56.66 97.08,56.66 C94.0092968,56.66 91.52,59.1492968 91.52,62.22 Z" id="Shape" fill="#555D60"></path>
            <polygon id="Path" fill="#555D60" points="109.8 55.39 114.8 65.31 119.8 55.39 121.72 55.39 121.72 69.05 120.27 69.05 120.27 57.7 115.27 67.61 114.33 67.61 109.33 57.7 109.33 69.05 107.85 69.05 107.85 55.39"></polygon>
            <polygon id="Path" fill="#555D60" points="135.89 55.39 135.89 56.84 128.18 56.84 128.18 61.42 135.07 61.42 135.07 62.85 128.18 62.85 128.18 67.61 136.18 67.61 136.18 69.05 126.66 69.05 126.66 55.39"></polygon>
            <polygon id="Path" fill="#555D60" points="146.46 55.39 150.21 67.3 153.92 55.39 155.48 55.39 159.23 67.3 162.93 55.39 164.55 55.39 160 69.05 158.4 69.05 154.71 57.48 151 69.05 149.4 69.05 144.84 55.39"></polygon>
            <path d="M175.09,65.56 L167.65,65.56 L166.13,69.05 L164.47,69.05 L170.6,55.39 L172.22,55.39 L178.33,69.05 L176.63,69.05 L175.09,65.56 Z M174.46,64.12 L171.36,57.12 L168.3,64.12 L174.46,64.12 Z" id="Shape" fill="#555D60"></path>
            <path d="M190.19,69.05 L187.32,64.68 C187.05,64.68 186.76,64.68 186.44,64.68 L182.81,64.68 L182.81,69.01 L181.25,69.01 L181.25,55.39 L186.44,55.39 C189.86,55.39 191.83,57.07 191.83,59.98 C191.974643,61.9931874 190.68991,63.832691 188.75,64.39 L191.97,69.05 L190.19,69.05 Z M186.44,63.28 C188.92,63.28 190.33,62.17 190.33,60.02 C190.33,57.87 188.92,56.84 186.44,56.84 L182.81,56.84 L182.81,63.28 L186.44,63.28 Z" id="Shape" fill="#555D60"></path>
            <path d="M205.08,69.05 L202.21,64.68 C201.94,64.68 201.64,64.68 201.33,64.68 L197.7,64.68 L197.7,69.01 L196.14,69.01 L196.14,55.39 L201.33,55.39 C204.75,55.39 206.72,57.07 206.72,59.98 C206.867462,61.9971365 205.576273,63.8399022 203.63,64.39 L206.85,69.05 L205.08,69.05 Z M201.33,63.28 C203.81,63.28 205.21,62.17 205.21,60.02 C205.21,57.87 203.81,56.84 201.33,56.84 L197.7,56.84 L197.7,63.28 L201.33,63.28 Z" id="Shape" fill="#555D60"></path>
            <path d="M219.65,65.56 L212.22,65.56 L210.7,69.05 L209,69.05 L215.13,55.39 L216.75,55.39 L222.85,69.05 L221.2,69.05 L219.65,65.56 Z M219.03,64.12 L215.93,57.12 L212.86,64.12 L219.03,64.12 Z" id="Shape" fill="#555D60"></path>
            <polygon id="Path" fill="#555D60" points="227.44 55.39 235.63 66.5 235.63 55.39 237.18 55.39 237.18 69.05 235.58 69.05 227.38 58 227.38 69.08 225.82 69.08 225.82 55.39"></polygon>
            <polygon id="Path" fill="#555D60" points="250.74 55.39 250.74 56.84 246.27 56.84 246.27 69.05 244.71 69.05 244.71 56.84 240.26 56.84 240.26 55.39"></polygon>
            <polygon id="Path" fill="#555D60" points="258.62 64.31 258.62 69.05 257.08 69.05 257.08 64.35 251.79 55.35 253.41 55.35 257.84 62.52 262.21 55.35 263.81 55.35"></polygon>
            <path d="M0.89,14.87 L31.33,0.77 L61,15 C61,15 67.6,57.11 31.05,72.7 C23,68.58 0.89,61.23 0.89,14.87 Z" id="Path" fill="url(#linearGradient-1)"></path>
            <path d="M4.83,17.72 L31.31,5.44 L57.07,17.82 C57.07,17.82 62.82,54.46 31.07,68.02 C24.06,64.44 4.83,58.05 4.83,17.72 Z" id="Path" fill="url(#linearGradient-2)"></path>
            <path d="M6.14,18.67 L31.3,7 L55.78,18.76 C55.78,18.76 61.23,53.56 31.03,66.45 C24.42,63.05 6.14,57 6.14,18.67 Z" id="Path" fill="#FFFFFF"></path>
            <path d="M30.8,66 L29.36,65.29 C21.91,61.68 6.36,54.15 6.36,19.2 L6.36,18.88 L11.58,16.46 L11.58,6.37 L18.77,6.37 L18.77,13.14 L31.27,7.35 L55.49,19 L55.49,19.26 C55.55,19.6 60.49,53.55 31.19,66.06 L30.97,66.15 L30.8,66 Z" id="Path" fill="url(#radialGradient-3)"></path>
            <path d="M18.3,6.87 L18.3,13.92 L31.3,7.92 L55,19.31 C55,19.31 60.29,53.07 31,65.57 C24.59,62.26 6.86,56.38 6.86,19.21 L12.08,16.79 L12.08,6.87 L18.27,6.87 M19.27,5.87 L11.08,5.87 L11.08,16.15 L6.44,18.3 L5.86,18.57 L5.86,19.21 C5.86,54.48 21.57,62.09 29.11,65.75 C29.64,66 30.11,66.24 30.55,66.46 L30.96,66.67 L31.4,66.49 C47,59.87 52.81,47.33 55,38 C56.4291632,31.8297175 56.7676003,25.4569455 56,19.17 L55.92,18.65 L55.44,18.43 L31.73,7 L31.31,6.79 L30.88,6.99 L19.3,12.36 L19.3,5.87 L19.27,5.87 Z" id="Shape" fill="#FFFFFF"></path>
            <path d="M11.39,46.23 C17.09,59.88 26.67,63.32 31.03,65.57 C48.95,57.92 53.93,42.32 55.1,31.36 C53.66,31.57 21.47,36.44 11.39,46.23 Z" id="Path" fill="url(#linearGradient-4)"></path>
            <path d="M8.81,39.33 C8.81,39.33 24.55,30.58 55.48,30.89 L55.48,31.32 C55.48,31.32 21.48,36.32 11.29,46.32 C10.74,45.12 8.81,39.33 8.81,39.33 Z" id="Path" fill="#FFFFFF"></path>
            <rect id="Rectangle" fill="#FFFFFF" x="26.02" y="16.99" width="4.83" height="4.75"></rect>
            <rect id="Rectangle" fill="#FFFFFF" x="31.85" y="16.99" width="4.83" height="4.75"></rect>
            <rect id="Rectangle" fill="#FFFFFF" x="26.02" y="22.63" width="4.83" height="4.75"></rect>
            <rect id="Rectangle" fill="#FFFFFF" x="31.85" y="22.63" width="4.83" height="4.75"></rect>
            <path d="M19.39,48.74 L24.22,45.58 C26.7837224,47.1520634 29.1678871,48.9997072 31.33,51.09 C32.39,50.22 53.33,34.68 54.93,34.84 C54.8074645,35.5508467 54.5457949,36.2305082 54.16,36.84 C54.16,36.84 40.37,47.84 31.4,60.92 C30.1,59.38 25.27,52.14 19.39,48.74 Z" id="Path" fill="#FFFFFF"></path>
            <path d="M77.51,36.77 C80.4280582,39.8320067 84.4802999,41.5542094 88.71,41.53 C94.47,41.53 96.5,38.75 96.5,36.31 C96.5,32.77 92.45,31.76 87.91,30.64 C82.2,29.22 75.58,27.64 75.58,20.76 C75.58,15.19 80.76,11.14 88.18,11.14 C93.67,11.14 98,12.81 101.18,15.85 L98.09,19.6 C95.3331276,16.9375971 91.621179,15.4960636 87.79,15.6 C83.84,15.6 81.12,17.53 81.12,20.37 C81.12,23.37 84.96,24.37 89.39,25.43 C95.21,26.9 101.98,28.62 101.98,35.82 C101.98,41.09 98.14,46 88.54,46 C82.19,46 77.54,43.82 74.54,40.63 L77.51,36.77 Z" id="Path" stroke="#0E3E93" stroke-width="0.5" fill="#0E3E93"></path>
            <polygon id="Path" stroke="#0E3E93" stroke-width="0.5" fill="#0E3E93" points="109.2 11.64 133.1 11.64 133.1 16.1 114.53 16.1 114.53 26 132.73 26 132.73 30.46 114.53 30.46 114.53 41 133.1 41 133.1 45.45 109.2 45.45"></polygon>
            <polygon id="Path" stroke="#0E3E93" stroke-width="0.5" fill="#0E3E93" points="140.84 11.64 146.17 11.64 146.17 41 162.34 41 162.34 45.45 140.84 45.45"></polygon>
            <polygon id="Path" stroke="#0E3E93" stroke-width="0.5" fill="#0E3E93" points="169.27 11.64 193.18 11.64 193.18 16.1 174.61 16.1 174.61 26 192.81 26 192.81 30.46 174.61 30.46 174.61 41 193.18 41 193.18 45.45 169.27 45.45"></polygon>
            <path d="M199.42,28.56 C199.42,18.18 207.53,11.09 217.67,11.09 C223.299815,10.8696807 228.645114,13.568792 231.81,18.23 L227.27,20.51 C225.092605,17.3695233 221.490895,15.5236474 217.67,15.59 C210.47,15.59 204.92,20.96 204.92,28.59 C204.79021,32.0323633 206.083372,35.3763244 208.495457,37.8357055 C210.907542,40.2950866 214.225766,41.6529294 217.67,41.59 C221.48944,41.6604041 225.091561,39.8180692 227.27,36.68 L231.81,38.96 C228.614195,43.574361 223.278219,46.2310282 217.67,46 C207.53,46 199.42,39 199.42,28.56 Z" id="Path" stroke="#0E3E93" stroke-width="0.5" fill="#0E3E93"></path>
            <polygon id="Path" stroke="#0E3E93" stroke-width="0.5" fill="#0E3E93" points="246.9 16.1 235.9 16.1 235.9 11.64 263.27 11.64 263.27 16.1 252.27 16.1 252.27 45.43 246.9 45.43"></polygon>
        </g>
        <line x1="288.5" y1="0" x2="288.5" y2="86" id="Path" stroke="#898989" stroke-width="0.75"></line>
    </g>
</svg>