<svg id="MBG_Gold" data-name="MBG Gold" xmlns="http://www.w3.org/2000/svg" xmlns:xlink="http://www.w3.org/1999/xlink" width="103.719" height="103.719" viewBox="0 0 103.719 103.719">
  <defs>
    <clipPath id="clip-path">
      <path id="Path_2010" data-name="Path 2010" d="M2836.191,979.859a44.332,44.332,0,1,1-44.332-44.332A44.332,44.332,0,0,1,2836.191,979.859Zm7.527,0A51.859,51.859,0,1,1,2791.859,928,51.918,51.918,0,0,1,2843.719,979.859Zm-4.824,0a47.035,47.035,0,1,0-47.035,47.035A47.088,47.088,0,0,0,2838.895,979.859Z" transform="translate(-2740 -928)" fill="none"/>
    </clipPath>
  </defs>
  <circle id="Ellipse_244" data-name="Ellipse 244" cx="49" cy="49" r="49" transform="translate(3 3)" fill="#fff"/>
  <g id="Group_1447" data-name="Group 1447">
    <circle id="Ellipse_240" data-name="Ellipse 240" cx="44.332" cy="44.332" r="44.332" transform="translate(7.527 7.527)" fill="#f4c547"/>
    <path id="Path_2009" data-name="Path 2009" d="M2791.859,928a51.859,51.859,0,1,0,51.859,51.859A51.918,51.918,0,0,0,2791.859,928Zm0,98.895a47.035,47.035,0,1,1,47.035-47.035A47.088,47.088,0,0,1,2791.859,1026.895Z" transform="translate(-2740 -928)" fill="#f4c547"/>
  </g>
  <circle id="Ellipse_241" data-name="Ellipse 241" cx="44.332" cy="44.332" r="44.332" transform="translate(7.527 7.527)" fill="none"/>
  <g id="Group_1449" data-name="Group 1449" transform="translate(0 0)">
    <g id="Group_1448" data-name="Group 1448" clip-path="url(#clip-path)">
      <rect id="Rectangle_1187" data-name="Rectangle 1187" width="109.693" height="62.52" transform="translate(22.518 96.904) rotate(-60)" fill="#efb82b"/>
    </g>
  </g>
  <g id="Group_1450" data-name="Group 1450" transform="translate(14.835 32.703)">
    <path id="Path_2011" data-name="Path 2011" d="M2774.564,993.5l1.742-10.857h2.083l2.7,6.494,2.7-6.494h2.083l1.742,10.857h-2.507l-.863-6.479-2.719,6.479h-.878l-2.719-6.479-.863,6.479Z" transform="translate(-2768.557 -982.394)" fill="#4c4c4c"/>
    <path id="Path_2012" data-name="Path 2012" d="M2810.231,983.812a5.777,5.777,0,0,1,0,8.171,5.8,5.8,0,0,1-4.2,1.595,5.976,5.976,0,0,1-4.232-1.595,5.541,5.541,0,0,1-1.693-4.037,6.061,6.061,0,0,1,1.677-4.118,6.413,6.413,0,0,1,8.448-.016Zm-6.592,1.66a3.328,3.328,0,0,0-.961,2.458,3.239,3.239,0,0,0,.993,2.441,3.2,3.2,0,0,0,2.327.9,3.291,3.291,0,0,0,2.409-.928,3.256,3.256,0,0,0,.944-2.425,3.42,3.42,0,0,0-.944-2.442,3.483,3.483,0,0,0-2.393-.928A3.333,3.333,0,0,0,2803.638,985.472Z" transform="translate(-2778.697 -982.233)" fill="#4c4c4c"/>
    <path id="Path_2013" data-name="Path 2013" d="M2824.434,993.5V982.639h2.181l5.892,7v-7h2.507V993.5h-2.182l-5.892-7.032V993.5Z" transform="translate(-2788.354 -982.394)" fill="#4c4c4c"/>
    <path id="Path_2014" data-name="Path 2014" d="M2853.681,984.754h-3.63v2.1h3.451v2.117h-3.451v2.408h3.63V993.5h-6.136V982.639h6.136Z" transform="translate(-2797.529 -982.394)" fill="#4c4c4c"/>
    <path id="Path_2015" data-name="Path 2015" d="M2864.639,988.433l-3.89-5.794h2.962l2.181,3.37,2.182-3.37h2.963l-3.891,5.794V993.5h-2.507Z" transform="translate(-2802.771 -982.394)" fill="#4c4c4c"/>
    <path id="Path_2016" data-name="Path 2016" d="M2794.381,1005.639a4.1,4.1,0,0,1,2.768.83,2.8,2.8,0,0,1,.781,2.05,2.546,2.546,0,0,1-.358,1.384,1.989,1.989,0,0,1-.912.8,2.829,2.829,0,0,1,1.5.733,2.648,2.648,0,0,1,.7,1.937,2.969,2.969,0,0,1-.846,2.2,4.114,4.114,0,0,1-2.865.928h-4.085v-10.857Zm-.846,4.41h.406a2.32,2.32,0,0,0,1.27-.309,1.151,1.151,0,0,0,.44-.96,1.107,1.107,0,0,0-.424-.912,2.083,2.083,0,0,0-1.3-.277h-.391Zm0,4.492h.6a2.758,2.758,0,0,0,1.856-.439,1.2,1.2,0,0,0,.358-.912,1.169,1.169,0,0,0-.342-.879,2.814,2.814,0,0,0-1.791-.406h-.684Z" transform="translate(-2775.106 -991.525)" fill="#4c4c4c"/>
    <path id="Path_2017" data-name="Path 2017" d="M2814.339,1014.445h-4.1l-.831,2.051h-2.6l4.378-10.857h2.295l4.281,10.857h-2.605Zm-.684-1.921-1.334-3.646-1.351,3.646Z" transform="translate(-2781.355 -991.525)" fill="#4c4c4c"/>
    <path id="Path_2018" data-name="Path 2018" d="M2835.591,1015.993a5.041,5.041,0,0,1-2.392.585,5.816,5.816,0,0,1-4.264-1.578,5.816,5.816,0,0,1,0-8.2,5.764,5.764,0,0,1,4.052-1.562,6.472,6.472,0,0,1,2.6.6v2.9a3.438,3.438,0,0,0-2.539-1.155,3.045,3.045,0,0,0-2.213.845,3.479,3.479,0,0,0-1.026,2.508,3.176,3.176,0,0,0,3.288,3.3,3.423,3.423,0,0,0,2.49-1.123Z" transform="translate(-2789.469 -991.364)" fill="#4c4c4c"/>
    <path id="Path_2019" data-name="Path 2019" d="M2848.539,1010.164l3.711-4.525h3.06l-4.4,5.143,4.737,5.714h-3.222l-3.891-4.819v4.819h-2.506v-10.857h2.506Z" transform="translate(-2796.929 -991.525)" fill="#4c4c4c"/>
    <path id="Path_2020" data-name="Path 2020" d="M2768.849,1032.836h3.992v.084a5.231,5.231,0,0,1-1.242,3.39,3.7,3.7,0,0,1-2.872,1.1,3.783,3.783,0,0,1-2.943-1.122,4.582,4.582,0,0,1-.025-6.116,4.144,4.144,0,0,1,3.161-1.169,4.057,4.057,0,0,1,2.256.6,4.441,4.441,0,0,1,1.3,1.436l-1.675.9a2.434,2.434,0,0,0-.713-.869,2.013,2.013,0,0,0-1.229-.385,2.176,2.176,0,0,0-1.666.651,2.752,2.752,0,0,0-.687,1.906,2.528,2.528,0,0,0,.675,1.846,2.116,2.116,0,0,0,1.629.627,2.061,2.061,0,0,0,1.4-.435,1.879,1.879,0,0,0,.579-.953h-1.941Z" transform="translate(-2764.602 -1000.799)" fill="#4c4c4c"/>
    <path id="Path_2021" data-name="Path 2021" d="M2788.566,1034.064a3.412,3.412,0,0,1-.893,2.546,3.891,3.891,0,0,1-5.019,0,3.414,3.414,0,0,1-.892-2.546V1029.3h1.858v4.716a1.9,1.9,0,0,0,.422,1.351,1.7,1.7,0,0,0,2.244,0,1.9,1.9,0,0,0,.422-1.351V1029.3h1.858Z" transform="translate(-2771.414 -1000.918)" fill="#4c4c4c"/>
    <path id="Path_2022" data-name="Path 2022" d="M2801.266,1035.826h-3.04l-.615,1.52h-1.929l3.245-8.046h1.7l3.173,8.046h-1.931Zm-.506-1.423-.99-2.7-1,2.7Z" transform="translate(-2776.94 -1000.918)" fill="#4c4c4c"/>
    <path id="Path_2023" data-name="Path 2023" d="M2814.664,1029.3a2.878,2.878,0,0,1,2.052.7,2.429,2.429,0,0,1,.7,1.8,2.2,2.2,0,0,1-.628,1.641,2.518,2.518,0,0,1-1.121.616l2.472,3.293h-2.268l-2.171-3.173v3.173h-1.857V1029.3Zm-.965,3.655h.423a1.527,1.527,0,0,0,1.109-.35,1.081,1.081,0,0,0,.3-.785.975.975,0,0,0-.374-.82,1.814,1.814,0,0,0-1.025-.253h-.435Z" transform="translate(-2783.356 -1000.918)" fill="#4c4c4c"/>
    <path id="Path_2024" data-name="Path 2024" d="M2829.565,1035.826h-3.04l-.615,1.52h-1.931l3.245-8.046h1.7l3.172,8.046h-1.93Zm-.507-1.423-.989-2.7-1,2.7Z" transform="translate(-2788.174 -1000.918)" fill="#4c4c4c"/>
    <path id="Path_2025" data-name="Path 2025" d="M2840.141,1037.346V1029.3h1.615l4.368,5.187V1029.3h1.857v8.046h-1.617l-4.366-5.211v5.211Z" transform="translate(-2794.59 -1000.918)" fill="#4c4c4c"/>
    <path id="Path_2026" data-name="Path 2026" d="M2859.567,1030.868v6.478h-1.858v-6.478h-1.749V1029.3h5.356v1.568Z" transform="translate(-2800.87 -1000.918)" fill="#4c4c4c"/>
    <path id="Path_2027" data-name="Path 2027" d="M2872.208,1030.868h-2.69v1.556h2.557v1.569h-2.557v1.785h2.69v1.568h-4.548V1029.3h4.548Z" transform="translate(-2805.514 -1000.918)" fill="#4c4c4c"/>
    <path id="Path_2028" data-name="Path 2028" d="M2883.447,1030.868h-2.69v1.556h2.558v1.569h-2.558v1.785h2.69v1.568H2878.9V1029.3h4.548Z" transform="translate(-2809.976 -1000.918)" fill="#4c4c4c"/>
  </g>
</svg>
