<svg xmlns="http://www.w3.org/2000/svg" width="139.604" height="22.423" viewBox="0 0 139.604 22.423"><g transform="translate(-112.465 -2322.212)"><path d="M13.8,20.021l7.293,4.4-1.935-8.3L25.6,10.544l-8.485-.72L13.8,2,10.485,9.825,2,10.544l6.444,5.582-1.935,8.3Z" transform="translate(110.465 2320.212)" fill="#f8ec6d"/><path d="M13.8,20.021l7.293,4.4-1.935-8.3L25.6,10.544l-8.485-.72L13.8,2,10.485,9.825,2,10.544l6.444,5.582-1.935,8.3Z" transform="translate(139.465 2320.212)" fill="#f8ec6d"/><path d="M13.8,20.021l7.293,4.4-1.935-8.3L25.6,10.544l-8.485-.72L13.8,2,10.485,9.825,2,10.544l6.444,5.582-1.935,8.3Z" transform="translate(168.465 2320.212)" fill="#f8ec6d"/><path d="M13.8,20.021l7.293,4.4-1.935-8.3L25.6,10.544l-8.485-.72L13.8,2,10.485,9.825,2,10.544l6.444,5.582-1.935,8.3Z" transform="translate(197.465 2320.212)" fill="#f8ec6d"/><path d="M13.8,20.021l7.293,4.4-1.935-8.3L25.6,10.544l-8.485-.72L13.8,2,10.485,9.825,2,10.544l6.444,5.582-1.935,8.3Z" transform="translate(226.465 2320.212)" fill="#f8ec6d"/></g></svg>