<?xml version="1.0" encoding="utf-8"?>
<!-- Generator: Adobe Illustrator 21.1.0, SVG Export Plug-In . SVG Version: 6.00 Build 0)  -->
<svg version="1.1" id="Layer_1" xmlns="http://www.w3.org/2000/svg" xmlns:xlink="http://www.w3.org/1999/xlink" x="0px" y="0px"
	 viewBox="0 0 337 99.8" style="enable-background:new 0 0 337 99.8;" xml:space="preserve">
<style type="text/css">
	.st0{fill:#949494;}
</style>
<g>
	<g id="LendingTree_3_">
		<g>
			<path class="st0" d="M327.3,69.3c0-6.1-1.4-10.8-4.2-14.1c-2.8-3.3-7-5-12.4-5c-5.4,0-9.7,1.7-12.7,5.1c-3,3.4-4.5,8.3-4.5,14.7
				c0,4.1,0.8,7.6,2.4,10.4c1.6,2.8,3.8,4.9,6.5,6.2c2.7,1.3,5.7,2,9.1,2c2.6,0,5-0.3,7-0.9c2-0.6,4-1.5,5.7-2.8
				c0.5-0.4,0.8-0.9,0.8-1.4c0-0.3-0.1-0.7-0.2-1.1l-1.5-3.1c-0.4-0.9-1-1.1-1.3-1.1c-0.3,0-0.6,0.1-1,0.4c-2.5,1.7-5.4,2.5-8.5,2.5
				c-3.2,0-5.8-0.8-7.6-2.4c-1.6-1.5-2.5-3.6-2.6-6.3h22.2C325.7,72.5,327.3,72.1,327.3,69.3z M302.5,65.9c0.1-2.4,0.8-4.4,2.2-5.9
				c1.4-1.6,3.5-2.4,6.2-2.4c2.7,0,4.7,0.8,6,2.3c1.2,1.5,1.9,3.5,2,6H302.5z"/>
			<path class="st0" d="M274.1,50.3c-5.4,0-9.7,1.7-12.7,5.1c-3,3.4-4.5,8.3-4.5,14.7c0,4.1,0.8,7.6,2.4,10.4
				c1.6,2.8,3.8,4.9,6.5,6.2c2.7,1.3,5.7,2,9.1,2c2.6,0,5-0.3,7-0.9c2-0.6,4-1.5,5.7-2.8c0.5-0.4,0.8-0.9,0.8-1.4
				c0-0.3-0.1-0.7-0.2-1.1l-1.5-3.1c-0.4-0.9-1-1.1-1.3-1.1c-0.3,0-0.6,0.1-1,0.4c-2.5,1.7-5.4,2.5-8.5,2.5c-3.2,0-5.8-0.8-7.6-2.4
				c-1.6-1.5-2.5-3.6-2.6-6.3H288c1,0,2.6-0.4,2.6-3.2c0-6.1-1.4-10.8-4.2-14.1C283.6,52,279.5,50.3,274.1,50.3z M282.1,65.9h-16.3
				c0.1-2.4,0.8-4.4,2.2-5.9c1.4-1.6,3.5-2.4,6.2-2.4c2.7,0,4.7,0.8,6,2.3C281.3,61.3,282,63.3,282.1,65.9z"/>
			<path class="st0" d="M258.2,53.9c0.1-0.4,0.1-0.8,0-1.1c-0.1-0.4-0.3-0.7-0.7-1c-1.3-1-5.5-1.2-6.5-1.2c-0.8,0-3.7,0.1-9.3,1.8
				c-0.3-0.5-0.8-0.8-1.4-0.8h-4.1c-0.9,0-1.5,0.2-1.8,0.7c-0.3,0.4-0.4,1-0.4,1.9v30.1c0,1,0.2,1.8,0.7,2.4c0,0,0.1,0.1,0.1,0.1
				c0.5,0.5,1.2,0.8,2.2,0.8h3.2c1.1,0,1.9-0.3,2.3-0.9c0.4-0.6,0.7-1.3,0.7-2.4V59.7c0.8-0.4,4.7-1.2,7-1.2c0.3,0,0.6,0,0.9,0
				c1,0.1,1.9,0.3,2.7,0.7l0.6,0.2l0.1,0c0.4,0,1-0.2,1.3-1.1l2.4-4.4L258.2,53.9z"/>
			<path class="st0" d="M229.9,52.3c-0.4-0.5-1.1-0.8-2.2-0.8h-6.3v-9.2c0-1-0.2-1.7-0.6-2.2c-0.4-0.6-1.1-0.9-2.1-0.9h-3.9
				c-1,0-1.7,0.3-2.1,0.9c-0.4,0.5-0.6,1.3-0.6,2.2v33c0,10.8,6.6,13,10.1,13.4c1.1,0.1,2.1-0.7,2.1-1.8v-4.9c0-0.7-0.4-1.3-1-1.6
				c-0.3-0.2-0.7-0.4-1.1-0.9c-0.7-0.8-0.9-2.4-0.9-4.5V59.6h6.3c1,0,1.7-0.2,2.2-0.7c0.4-0.5,0.5-1.2,0.5-2.3v-2
				C230.4,53.5,230.3,52.7,229.9,52.3z"/>
			<path class="st0" d="M200.9,51.7c-2.7-0.9-5.4-1.3-8.2-1.3c-6,0-10.7,1.7-13.9,5.1c-3.2,3.4-4.8,8.3-4.8,14.5
				c0,5.5,1.4,9.9,4.1,12.9c2.7,3.1,6.5,4.7,11.4,4.7c2.3,0,4.3-0.4,5.9-1.1c1.1-0.5,2.2-1.2,3.1-2.1c-0.2,2.6-0.8,4.6-1.7,5.8
				c-1.2,1.4-3,2.1-5.6,2.1c-2.4,0-4.8-0.4-6.8-1.1c-0.8-0.3-1.7,0.3-1.7,1.2l-0.2,5.3c0,0.6,0.4,1.1,0.9,1.3
				c1.6,0.4,5.1,1.2,8.4,1.2c5.4,0,9.5-1.8,12-5.3c2.5-3.4,3.8-8.2,3.8-14.2V54.7C207.6,54.7,203.5,52.6,200.9,51.7z M198.5,59.5V72
				c0,2.3-0.7,4.2-2,5.5c-1.3,1.3-3.1,2-5.2,2c-2.7,0-4.8-0.8-6.1-2.4c-1.4-1.6-2-4.2-2-7.6c0-7.5,3-11.1,9.2-11.1
				c1.3,0,2.5,0.1,3.7,0.4C197,58.9,197.8,59.1,198.5,59.5z"/>
			<path class="st0" d="M158.6,50.4c-4.4,0-6.7,0.6-10,1.4c-0.5,0.1-1.1,0.3-1.7,0.4c-0.3-0.5-0.8-0.8-1.4-0.8h-4.1
				c-0.9,0-1.5,0.2-1.8,0.7c-0.3,0.4-0.4,1-0.4,1.9v30.3c0,1,0.2,1.8,0.7,2.4c0.5,0.6,1.3,0.9,2.3,0.9h3.2c1.1,0,1.9-0.3,2.3-0.9
				c0.4-0.6,0.7-1.3,0.7-2.4V59.5c0.9-0.4,5.3-1.2,7.6-1.2c1.9,0,3.2,0.4,4.1,1.3c0.8,0.9,1.2,2.4,1.2,4.6v20.1c0,1,0.2,1.8,0.7,2.4
				c0.5,0.6,1.3,0.9,2.3,0.9h3.3c1,0,1.8-0.3,2.3-0.9c0.4-0.6,0.7-1.3,0.7-2.4V63.7c0-4.4-1.1-7.7-3.3-9.9
				C165,51.5,162.1,50.4,158.6,50.4z"/>
			<path class="st0" d="M131.6,51.5h-3.2c-1,0-1.8,0.3-2.3,0.9c-0.5,0.6-0.7,1.4-0.7,2.5v29.6c0,1,0.2,1.8,0.7,2.4
				c0.5,0.6,1.3,0.9,2.3,0.9h3.2c1.1,0,1.9-0.3,2.3-0.9c0.4-0.6,0.7-1.3,0.7-2.4V54.8c0-1.1-0.2-1.9-0.7-2.5
				C133.4,51.7,132.6,51.5,131.6,51.5z"/>
			<path class="st0" d="M120,36.3c-2.7,1.2-8.3,5.8-8.3,7v9.6c-2.1-1.7-5-2.6-8.8-2.6c-3.2,0-6,0.8-8.4,2.4
				c-2.4,1.6-4.2,3.9-5.4,6.8c-1.2,2.9-1.9,6.2-1.9,9.9c0,12.8,6.2,19.3,18.3,19.3c2.9,0,5.8-0.5,8.5-1.4c2.7-0.9,6.8-3.1,6.8-3.1
				V37.1c0-0.2-0.1-0.4-0.2-0.6C120.5,36.4,120.2,36.1,120,36.3z M111.7,64.8v14.5c-1.5,1-3.5,1.4-6,1.4c-3.2,0-5.5-0.9-7.1-2.6
				c-1.5-1.7-2.3-4.6-2.3-8.6c0-3.6,0.7-6.4,2.1-8.4c1.4-1.9,3.5-2.9,6.3-2.9c2.1,0,3.8,0.6,5.1,1.7C111.1,61,111.7,62.6,111.7,64.8
				z"/>
			<path class="st0" d="M71.8,50.4c-4.4,0-6.7,0.6-10,1.4l-0.2,0.1c-0.5,0.1-1,0.2-1.5,0.4c-0.2-0.3-0.6-0.8-1.4-0.8h-4.1
				c-0.9,0-1.5,0.2-1.8,0.7c-0.3,0.4-0.4,1-0.4,1.9v30.3c0,1,0.2,1.8,0.7,2.4c0.5,0.6,1.3,0.9,2.3,0.9h3.2c1.1,0,1.9-0.3,2.3-0.9
				c0.4-0.6,0.7-1.3,0.7-2.4V59.5c0.9-0.4,5.3-1.2,7.6-1.2c1.9,0,3.2,0.4,4.1,1.3c0.8,0.9,1.2,2.4,1.2,4.6v20.1c0,1,0.2,1.8,0.7,2.4
				c0.5,0.6,1.3,0.9,2.3,0.9h3.3c1,0,1.8-0.3,2.3-0.9c0.4-0.6,0.7-1.3,0.7-2.4V63.7c0-4.4-1.1-7.7-3.3-9.9
				C78.2,51.5,75.4,50.4,71.8,50.4z"/>
			<path class="st0" d="M32.2,50.3c-5.4,0-9.7,1.7-12.7,5.1c-3,3.4-4.5,8.3-4.5,14.7c0,4.1,0.8,7.6,2.4,10.4
				c1.6,2.8,3.8,4.9,6.5,6.2c2.7,1.3,5.7,2,9.1,2c2.6,0,5-0.3,7-0.9c2-0.6,4-1.5,5.7-2.8c0.5-0.4,0.8-0.9,0.8-1.4
				c0-0.3-0.1-0.7-0.2-1.1l-1.5-3.1c-0.4-0.9-1-1.1-1.3-1.1c-0.3,0-0.6,0.1-1,0.4c-2.5,1.7-5.4,2.5-8.5,2.5c-3.2,0-5.8-0.8-7.6-2.4
				c-1.6-1.5-2.5-3.6-2.6-6.3h22.2c1,0,2.6-0.4,2.6-3.2c0-6.1-1.4-10.8-4.2-14.1C41.8,52,37.6,50.3,32.2,50.3z M40.2,65.9H23.9
				c0.1-2.4,0.8-4.4,2.2-5.9c1.4-1.6,3.5-2.4,6.2-2.4c2.7,0,4.7,0.8,6,2.3C39.5,61.3,40.1,63.3,40.2,65.9z"/>
			<path class="st0" d="M11.6,79.4c-0.7-0.8-0.9-2.4-0.9-4.5V40.4c0-1-0.2-1.7-0.6-2.2C9.7,37.5,9,37.3,8,37.3H4.1
				c-1,0-1.7,0.3-2.1,0.9c-0.4,0.5-0.6,1.3-0.6,2.2v34.9c0,10.8,6.6,13,10.1,13.4c1.1,0.1,2.1-0.7,2.1-1.8v-4.9c0-0.7-0.4-1.3-1-1.6
				C12.3,80.1,11.9,79.8,11.6,79.4z"/>
		</g>
	</g>
	<path id="Leaf_3_" class="st0" d="M170.9,0.5c-2.4,0.4-18,2-29.5,4.9c-16.4,4.1-16.1,17.7-16.1,23.1c0,1.6,0,4,0,6.5
		c0,0,0,11.5,0,11.8c0,0.2,0.2,0.3,0.3,0.1c11.3-15.1,23.1-25,23.1-25s0.1-0.1,0,0c-1.1,0.2-6.9,2.2-14.1,6c0-1.3,0-2.2,0-2.3
		c-0.1-9.3,5.4-11.8,11.9-13.6c5.3-1.5,15.3-2.3,15.3-2.3s-0.8,5.8-1.9,17.6c-0.8,8.6-7.1,10.6-15.9,10.6c-1,0-2.5,0-5,0
		c-4,5.7-4.5,9.2-4.5,9.2s8.1,0,9.8,0c18.6,0,22.7-8.2,23.6-20.3c1.1-15.4,2.7-24.3,3.1-26C171.1,0.6,171,0.5,170.9,0.5z"/>
	<g>
		<path class="st0" d="M334.4,52.9c-0.3-0.6-0.8-1.1-1.4-1.4c-0.6-0.3-1.2-0.5-1.9-0.5c-0.7,0-1.3,0.2-1.9,0.5
			c-0.6,0.3-1.1,0.8-1.4,1.4c-0.3,0.6-0.5,1.3-0.5,1.9c0,0.7,0.2,1.3,0.5,1.9c0.3,0.6,0.8,1.1,1.4,1.4c0.6,0.3,1.2,0.5,1.9,0.5
			c0.7,0,1.3-0.2,1.9-0.5c0.6-0.3,1.1-0.8,1.4-1.4c0.3-0.6,0.5-1.2,0.5-1.9C335,54.2,334.8,53.5,334.4,52.9z M333.8,56.4
			c-0.3,0.5-0.7,0.9-1.1,1.1c-0.5,0.3-1,0.4-1.5,0.4c-0.5,0-1-0.1-1.5-0.4c-0.5-0.3-0.9-0.7-1.1-1.1c-0.3-0.5-0.4-1-0.4-1.5
			c0-0.5,0.1-1.1,0.4-1.6c0.3-0.5,0.7-0.9,1.1-1.1c0.5-0.3,1-0.4,1.5-0.4c0.5,0,1,0.1,1.5,0.4c0.5,0.3,0.9,0.6,1.1,1.1
			c0.3,0.5,0.4,1,0.4,1.6C334.2,55.4,334.1,55.9,333.8,56.4z"/>
		<path class="st0" d="M332.3,55.5c-0.1-0.1-0.2-0.2-0.3-0.3c-0.1-0.1-0.2-0.1-0.3-0.1c0.3,0,0.6-0.2,0.8-0.4
			c0.2-0.2,0.3-0.4,0.3-0.7c0-0.2,0-0.4-0.1-0.6c-0.1-0.2-0.2-0.3-0.4-0.4c-0.1-0.1-0.3-0.1-0.6-0.2c-0.1,0-0.5,0-1.2,0h-0.8v3.9
			h0.8v-1.6h0.2c0.2,0,0.4,0.1,0.5,0.2c0.1,0.1,0.3,0.4,0.5,0.8l0.3,0.6h1l-0.5-0.8C332.4,55.7,332.3,55.6,332.3,55.5z M331.6,54.5
			c-0.1,0-0.4,0.1-0.8,0.1h-0.3v-1.1h0.3c0.4,0,0.7,0,0.8,0.1c0.1,0,0.2,0.1,0.3,0.2c0.1,0.1,0.1,0.2,0.1,0.3c0,0.1,0,0.2-0.1,0.3
			C331.8,54.4,331.7,54.5,331.6,54.5z"/>
	</g>
</g>
</svg>
