<svg xmlns="http://www.w3.org/2000/svg" width="65" height="65" viewBox="0 0 65 65"><title>amount</title><circle cx="32.5" cy="32.5" r="25" fill="#def4ff"/><path d="M37.56,26c-1.91-.92-3.83-1.76-6-1.54a5.09,5.09,0,0,0-1.72.41,2.23,2.23,0,0,0-.22,4,12,12,0,0,0,3.57,1.25,25.9,25.9,0,0,1,5,1.6c2.34,1.14,3.87,2.85,3.92,5.61a6.2,6.2,0,0,1-3.58,5.85,8,8,0,0,1-2.78,1c-.94.11-1.23.58-1.28,1.49-.06,1.7-1.51,2.62-2.83,1.88a1.9,1.9,0,0,1-1-1.88c.06-1.1-.45-1.53-1.47-1.75A13.82,13.82,0,0,1,24,41.67a2.14,2.14,0,0,1-.93-2.6c.31-1,1.05-1.35,2.35-1.4.56,0,1.25.48,2,.9a11.12,11.12,0,0,0,6.8,1.74c1.67-.14,2.8-.93,3-2.07a2.22,2.22,0,0,0-1.26-2.57,15.67,15.67,0,0,0-3.85-1.21,17,17,0,0,1-5.34-1.94A6.2,6.2,0,0,1,27,21.67a7.49,7.49,0,0,1,2.2-.87,1.49,1.49,0,0,0,1.44-1.65,1.9,1.9,0,0,1,2.89-1.66,1.88,1.88,0,0,1,.94,1.8c0,.83.38,1.18,1.17,1.35a12.94,12.94,0,0,1,4,1.48c1.38.81,1.85,1.94,1.28,3s-1.9,1.5-3.31.81Z" fill="#06a9db"/></svg>