<svg xmlns="http://www.w3.org/2000/svg" width="65" height="65" viewBox="0 0 65 65"><title>apr-percentage</title><circle cx="32.5" cy="32.5" r="25" fill="#def4ff"/><path d="M43,23.88a1.39,1.39,0,0,0-.09-1.79A1.34,1.34,0,0,0,41,21.81a4.91,4.91,0,0,0-.65.57L22.13,40.84c-.21.21-.5.4-.56.66a2.24,2.24,0,0,0,0,1.4c.19.41.72.65,1.21,1a10.84,10.84,0,0,0,1.4-1q9.15-9.19,18.27-18.45A3.65,3.65,0,0,0,43,23.88Z" fill="#06a9db"/><path d="M40.05,33.32A5.48,5.48,0,1,0,45.5,38.8,5.42,5.42,0,0,0,40.05,33.32Zm0,8a2.54,2.54,0,0,1-2.49-2.53,2.58,2.58,0,0,1,2.55-2.57,2.52,2.52,0,0,1,2.51,2.59A2.47,2.47,0,0,1,40,41.34Z" fill="#06a9db"/><path d="M24.91,31.68a5.48,5.48,0,1,0-5.41-5.4A5.43,5.43,0,0,0,24.91,31.68Zm0-8a2.48,2.48,0,0,1,2.52,2.57A2.53,2.53,0,0,1,25,28.78a2.59,2.59,0,0,1-2.59-2.54A2.55,2.55,0,0,1,24.93,23.64Z" fill="#06a9db"/></svg>