<svg xmlns="http://www.w3.org/2000/svg" xmlns:xlink="http://www.w3.org/1999/xlink" width="175" height="175" viewBox="0 0 175 175"><defs><clipPath id="a"><path d="M116.38,8.91a3,3,0,0,0-2.75,0L61.37,39.07A3.05,3.05,0,0,0,60,41.45v60.34a3.07,3.07,0,0,1-1.37,2.38L6.38,134.34a.84.84,0,0,0,0,1.59l52.25,30.16a3,3,0,0,0,2.74,0l52.25-30.16a3.07,3.07,0,0,0,1.37-2.38V73.21a3.05,3.05,0,0,1,1.38-2.38l52.25-30.17a.84.84,0,0,0,0-1.59Z" fill="none"/></clipPath></defs><polygon points="115 8.11 59.99 39.87 59.99 103.38 5 135.13 59.99 166.89 114.99 135.13 114.99 71.62 170 39.87 115 8.11" fill="#fff" opacity="0"/><g clip-path="url(#a)"><polygon points="115 8.11 60 39.87 115 71.62 170 39.87 115 8.11" fill="#06a9db"/><polygon points="60 103.38 5 135.13 60 166.89 115 135.13 60 103.38" fill="#06a9db"/><polygon points="60 39.87 115 71.62 115 135.13 60 103.38 60 39.87" fill="#06a9db" opacity="0.3"/></g></svg>