<svg xmlns="http://www.w3.org/2000/svg" xmlns:xlink="http://www.w3.org/1999/xlink" width="187.76" height="123.44" viewBox="0 0 187.76 123.44"><defs><clipPath id="a"><path d="M109,.42a1.59,1.59,0,0,0-1.44,0L80.18,16.23a1.62,1.62,0,0,0-.72,1.25V49.1a1.59,1.59,0,0,1-.72,1.25L51.36,66.16a.45.45,0,0,0,0,.84L78.75,82.81a1.59,1.59,0,0,0,1.44,0L107.57,67a1.59,1.59,0,0,0,.72-1.25V34.12a1.63,1.63,0,0,1,.72-1.25l27.4-15.81a.44.44,0,0,0,0-.83Z" fill="none"/></clipPath></defs><title>logo-vertical-white</title><path d="M0,114.52l1.9-3.17a9.42,9.42,0,0,0,5.75,2.31c1.9,0,2.79-.73,2.79-1.76,0-2.72-9.85-.48-9.85-7,0-2.79,2.41-5.24,6.82-5.24a10.58,10.58,0,0,1,6.68,2.28L12.34,105a7.16,7.16,0,0,0-4.93-1.93c-1.59,0-2.62.69-2.62,1.62,0,2.44,9.89.38,9.89,7.1,0,3.06-2.62,5.3-7.24,5.3A11.2,11.2,0,0,1,0,114.52Z" fill="#fff"/><path d="M28.48,116.69v-2.1a7.93,7.93,0,0,1-5.86,2.51c-3.65,0-5.38-2-5.38-5.23V100h4.38v10.1c0,2.31,1.21,3.07,3.07,3.07a4.89,4.89,0,0,0,3.79-1.9V100h4.37v16.65Z" fill="#fff"/><path d="M40.92,114.55V123H36.54V100h4.38v2.11a6.42,6.42,0,0,1,5.13-2.52c4.28,0,7.38,3.17,7.38,8.72s-3.1,8.75-7.38,8.75A6.39,6.39,0,0,1,40.92,114.55Zm8-6.2c0-2.86-1.72-4.82-4.23-4.82a4.85,4.85,0,0,0-3.76,1.89v5.86a4.92,4.92,0,0,0,3.76,1.93C47.19,113.21,48.91,111.24,48.91,108.35Z" fill="#fff"/><path d="M55.21,108.35a8.49,8.49,0,0,1,8.61-8.72c5,0,8.34,3.72,8.34,9.13v1H59.79c.31,2,2,3.72,4.79,3.72A7,7,0,0,0,69,111.9l2,2.89a10.34,10.34,0,0,1-6.85,2.31C59,117.1,55.21,113.69,55.21,108.35Zm8.61-5.13a3.84,3.84,0,0,0-4.07,3.54H68A3.81,3.81,0,0,0,63.82,103.22Z" fill="#fff"/><path d="M74.77,116.69V100h4.38v2.24a7.31,7.31,0,0,1,5.31-2.65v4.27a6.29,6.29,0,0,0-1.21-.1,5.56,5.56,0,0,0-4.1,1.9v11Z" fill="#fff"/><path d="M107,116.69V106.18c0-1.55-.69-2.65-2.48-2.65a4.43,4.43,0,0,0-3.45,1.93v11.23H96.69V106.18c0-1.55-.69-2.65-2.48-2.65a4.51,4.51,0,0,0-3.44,1.93v11.23H86.39V100h4.38v2.14a7.46,7.46,0,0,1,5.44-2.55c2.45,0,4,1.14,4.62,3a7.13,7.13,0,0,1,5.72-3c3.07,0,4.89,1.62,4.89,5v12Z" fill="#fff"/><path d="M114.14,108.35a8.81,8.81,0,1,1,8.79,8.75A8.43,8.43,0,0,1,114.14,108.35Zm13.06,0c0-2.58-1.51-4.82-4.27-4.82s-4.24,2.24-4.24,4.82,1.52,4.86,4.24,4.86S127.2,111,127.2,108.35Z" fill="#fff"/><path d="M145.71,116.69V106.63c0-2.31-1.21-3.1-3.07-3.1a4.86,4.86,0,0,0-3.79,1.93v11.23h-4.38V100h4.38v2.14a7.78,7.78,0,0,1,5.82-2.55c3.69,0,5.45,2.07,5.45,5.31v11.75Z" fill="#fff"/><path d="M152.76,108.35a8.49,8.49,0,0,1,8.61-8.72c5,0,8.34,3.72,8.34,9.13v1H157.34c.31,2,2,3.72,4.79,3.72a7,7,0,0,0,4.41-1.62l2,2.89a10.36,10.36,0,0,1-6.86,2.31C156.58,117.1,152.76,113.69,152.76,108.35Zm8.61-5.13a3.83,3.83,0,0,0-4.06,3.54h8.2A3.81,3.81,0,0,0,161.37,103.22Z" fill="#fff"/><path d="M172,121l2-3.13a6.59,6.59,0,0,0,5,2,4.18,4.18,0,0,0,4.48-4.27v-1.73a7.93,7.93,0,0,1-5.86,2.52c-3.65,0-5.38-2-5.38-5.24V100h4.38v9.38c0,2.31,1.21,3.07,3.07,3.07a4.89,4.89,0,0,0,3.79-1.9V100h4.37v15.55c0,5-3.55,7.85-8.85,7.85A10,10,0,0,1,172,121Z" fill="#fff"/><polygon points="108.3 0 79.46 16.64 79.46 49.94 50.64 66.58 79.47 83.23 108.29 66.58 108.29 33.29 137.13 16.64 108.3 0" fill="#fff" opacity="0"/><g clip-path="url(#a)"><polygon points="108.3 0 79.47 16.64 108.3 33.29 137.13 16.64 108.3 0" fill="#fff"/><polygon points="79.47 49.94 50.64 66.58 79.47 83.23 108.3 66.58 79.47 49.94" fill="#fff"/><polygon points="79.47 16.64 108.3 33.29 108.3 66.58 79.47 49.94 79.47 16.64" fill="#fff" opacity="0.33"/></g></svg>