<svg xmlns="http://www.w3.org/2000/svg" width="64" height="64" viewBox="0 0 64 64"><title>special-offers</title><path d="M39.5,9.53l10,8.19A1.32,1.32,0,0,1,50,18.79l-.4,12.13a1.52,1.52,0,0,1-.34.9L30.9,54.21a1.39,1.39,0,0,1-2,.26L7.65,37a1.39,1.39,0,0,1-.13-2L26.1,12.37a1.46,1.46,0,0,1,.82-.51L38.37,9.27A1.33,1.33,0,0,1,39.5,9.53Z" fill="#f2fafd"/><path d="M29.76,56a2.46,2.46,0,0,1-1.58-.56L6.89,38a2.58,2.58,0,0,1-.3-3.65l18.58-22.7a2.72,2.72,0,0,1,1.49-.92L38.11,8.1a2.51,2.51,0,0,1,2.15.5h0l10,8.19a2.52,2.52,0,0,1,.92,2L50.78,31a2.72,2.72,0,0,1-.62,1.62L31.83,55A2.69,2.69,0,0,1,29.76,56Zm8.92-45.52h0L27.19,13a.33.33,0,0,0-.17.1L8.44,35.83a.22.22,0,0,0,0,.28L29.7,53.55a.23.23,0,0,0,.27-.1l18.34-22.4a.28.28,0,0,0,.07-.17l.4-12.13a.11.11,0,0,0,0-.1l-10-8.19Z" fill="#06a9db"/><path d="M39.83,22.9a3.45,3.45,0,1,1,2.67-1.26h0a3.47,3.47,0,0,1-2.33,1.25Zm0-5.9a2.45,2.45,0,0,0-1.55,4.35A2.45,2.45,0,0,0,41.73,21h0a2.45,2.45,0,0,0-1.9-4Z" fill="#06a9db" stroke="#06a9db" stroke-miterlimit="10"/><path d="M21.1,44.43a12.77,12.77,0,0,0,9-.36,45.11,45.11,0,0,0,11.41-7.74L30.4,49.88a1.72,1.72,0,0,1-2.42.19Z" fill="#06a9db" opacity="0.25"/><path d="M39.83,17a2.45,2.45,0,0,0-1.55,4.35A2.45,2.45,0,0,0,41.73,21h0a2.45,2.45,0,0,0-1.9-4Z" fill="#fff"/><path d="M40.78,20.15c-.31,0-.5,0-.55,0a.62.62,0,0,1-.58-.68.64.64,0,0,1,.68-.59c.06,0,5.75.36,7.69-3.79,2.79-6,6.75-6,9.59-5a.64.64,0,0,1-.44,1.2c-3.44-1.24-6.05.17-8,4.32S42.41,20.15,40.78,20.15Z" fill="#06a9db"/></svg>